<svg xmlns="http://www.w3.org/2000/svg" viewBox="0 0 166 161.29"><defs><style>.cls-1{fill:#71b5db;}.cls-2{fill:#fff;}</style></defs><g id="Layer_2" data-name="Layer 2"><g id="Layer_1-2" data-name="Layer 1"><path class="cls-1" d="M115.19,57.53,150.33,54s15.65-33-14.92-28.23c0,0-.68-31.35-24.27-24.91S77,32.53,77,32.53s-3-5-11.9-1.49S46.19,43.44,46.48,57.53L0,69.75l76.77-8.2a36.21,36.21,0,0,1-1,7.17A277.4,277.4,0,0,1,65,103l10.26-2.54s.48,8.17-8.11,20.88-37.52,40.32-36.76,39.93c0,0,47.26-34,66.36-57.18s17.66-31.76,17.66-31.76l-10,1.81A123.51,123.51,0,0,0,113,61.46C113.89,60,114.6,58.7,115.19,57.53Z"/><path class="cls-2" d="M46,139c2-2.1,4-4.23,5.93-6.33-14.75-10.09-24.36-26.55-24.36-45.15a53,53,0,0,1,2.93-17.4l-13,1.39a67.91,67.91,0,0,0-.9,11C16.56,105.59,28.09,126.05,46,139Z"/><path class="cls-2" d="M38.71,54.88a58.5,58.5,0,0,1,4.1-4.79c2.49-12,11.76-19.75,20.59-23.27,5-2,9-1.85,11.87-.86A72,72,0,0,1,85.58,11.75C55.24,13.92,30,33.31,20.53,59.66Z"/><path class="cls-2" d="M156.82,48.44a49.33,49.33,0,0,1-2.57,6.79l-1,2.14-17,1.7a53.26,53.26,0,0,1,8.25,28.48c0,30.7-26.18,55.59-58.48,55.59a61,61,0,0,1-21.1-3.73c-2.66,2.19-5.29,4.31-7.82,6.32a77.61,77.61,0,0,0,34.17,7.85c41.26,0,74.72-31.8,74.72-71A67.94,67.94,0,0,0,156.82,48.44Z"/></g></g></svg>